<?xml version="1.0" encoding="utf-8"?>
<svg xmlns="http://www.w3.org/2000/svg" width="5.000000" height="5.000000" viewBox="0 0 5.000000 5.000000">
  <rect x="1.000000" y="1.000000" width="1.000000" height="1.000000" fill="white" stroke-width="0.100000" stroke="black"/>
  <rect x="2.000000" y="1.000000" width="1.000000" height="1.000000" fill="white" stroke-width="0.100000" stroke="black"/>
  <rect x="3.000000" y="1.000000" width="1.000000" height="1.000000" fill="white" stroke-width="0.100000" stroke="black"/>
  <rect x="1.000000" y="2.000000" width="1.000000" height="1.000000" fill="white" stroke-width="0.100000" stroke="black"/>
  <rect x="2.000000" y="2.000000" width="1.000000" height="1.000000" fill="white" stroke-width="0.100000" stroke="black"/>
  <rect x="3.000000" y="2.000000" width="1.000000" height="1.000000" fill="white" stroke-width="0.100000" stroke="black"/>
  <rect x="1.000000" y="3.000000" width="1.000000" height="1.000000" fill="white" stroke-width="0.100000" stroke="black"/>
  <rect x="2.000000" y="3.000000" width="1.000000" height="1.000000" fill="white" stroke-width="0.100000" stroke="black"/>
  <rect x="3.000000" y="3.000000" width="1.000000" height="1.000000" fill="white" stroke-width="0.100000" stroke="black"/>
  <line x1="1.250000" y1="2.250000" x2="1.750000" y2="2.750000" stroke-width="0.100000" stroke="red"/>
  <line x1="1.250000" y1="2.750000" x2="1.750000" y2="2.250000" stroke-width="0.100000" stroke="red"/>
  <circle cx="2.500000" cy="2.500000" r="0.300000" fill="transparent" stroke-width="0.100000" stroke="blue"/>
  <circle cx="3.500000" cy="2.500000" r="0.300000" fill="transparent" stroke-width="0.100000" stroke="blue"/>
  <line x1="2.250000" y1="3.250000" x2="2.750000" y2="3.750000" stroke-width="0.100000" stroke="red"/>
  <line x1="2.250000" y1="3.750000" x2="2.750000" y2="3.250000" stroke-width="0.100000" stroke="red"/>
</svg>
