<?xml version="1.0" encoding="utf-8"?>
<svg xmlns="http://www.w3.org/2000/svg" width="100.000000" height="100.000000" viewBox="0 0 100.000000 100.000000">
  <rect x="20.000000" y="20.000000" width="20.000000" height="20.000000" fill="white" stroke-width="2.000000" stroke="black"/>
  <rect x="40.000000" y="20.000000" width="20.000000" height="20.000000" fill="white" stroke-width="2.000000" stroke="black"/>
  <rect x="60.000000" y="20.000000" width="20.000000" height="20.000000" fill="white" stroke-width="2.000000" stroke="black"/>
  <rect x="20.000000" y="40.000000" width="20.000000" height="20.000000" fill="white" stroke-width="2.000000" stroke="black"/>
  <rect x="40.000000" y="40.000000" width="20.000000" height="20.000000" fill="white" stroke-width="2.000000" stroke="black"/>
  <rect x="60.000000" y="40.000000" width="20.000000" height="20.000000" fill="white" stroke-width="2.000000" stroke="black"/>
  <rect x="20.000000" y="60.000000" width="20.000000" height="20.000000" fill="white" stroke-width="2.000000" stroke="black"/>
  <rect x="40.000000" y="60.000000" width="20.000000" height="20.000000" fill="white" stroke-width="2.000000" stroke="black"/>
  <rect x="60.000000" y="60.000000" width="20.000000" height="20.000000" fill="white" stroke-width="2.000000" stroke="black"/>
  <line x1="65.000000" y1="25.000000" x2="75.000000" y2="35.000000" stroke-width="2.000000" stroke="red"/>
  <line x1="65.000000" y1="35.000000" x2="75.000000" y2="25.000000" stroke-width="2.000000" stroke="red"/>
  <circle cx="30.000000" cy="50.000000" r="6.000000" fill="transparent" stroke-width="2.000000" stroke="blue"/>
  <line x1="45.000000" y1="45.000000" x2="55.000000" y2="55.000000" stroke-width="2.000000" stroke="red"/>
  <line x1="45.000000" y1="55.000000" x2="55.000000" y2="45.000000" stroke-width="2.000000" stroke="red"/>
  <circle cx="70.000000" cy="50.000000" r="6.000000" fill="transparent" stroke-width="2.000000" stroke="blue"/>
  <line x1="45.000000" y1="65.000000" x2="55.000000" y2="75.000000" stroke-width="2.000000" stroke="red"/>
  <line x1="45.000000" y1="75.000000" x2="55.000000" y2="65.000000" stroke-width="2.000000" stroke="red"/>
  <circle cx="70.000000" cy="70.000000" r="6.000000" fill="transparent" stroke-width="2.000000" stroke="blue"/>
</svg>
